<mxfile host="app.diagrams.net" agent="Mozilla/5.0 (Windows NT 10.0; Win64; x64) AppleWebKit/537.36 (KHTML, like Gecko) Chrome/134.0.0.0 Safari/537.36" version="26.1.3">
  <diagram name="Страница — 1" id="Fg6YOCUBCGPJYDmtmudU">
    <mxGraphModel grid="1" page="1" gridSize="10" guides="1" tooltips="1" connect="1" arrows="1" fold="1" pageScale="1" pageWidth="827" pageHeight="1169" math="0" shadow="0">
      <root>
        <mxCell id="0" />
        <mxCell id="1" parent="0" />
        <mxCell id="B-dKM5KLC_w13ERNdBNS-1" value=":Client" style="shape=umlLifeline;perimeter=lifelinePerimeter;whiteSpace=wrap;html=1;container=0;dropTarget=0;collapsible=0;recursiveResize=0;outlineConnect=0;portConstraint=eastwest;newEdgeStyle={&quot;edgeStyle&quot;:&quot;elbowEdgeStyle&quot;,&quot;elbow&quot;:&quot;vertical&quot;,&quot;curved&quot;:0,&quot;rounded&quot;:0};" vertex="1" parent="1">
          <mxGeometry x="245" y="40" width="100" height="1180" as="geometry" />
        </mxCell>
        <mxCell id="B-dKM5KLC_w13ERNdBNS-7" value=":Server" style="shape=umlLifeline;perimeter=lifelinePerimeter;whiteSpace=wrap;html=1;container=0;dropTarget=0;collapsible=0;recursiveResize=0;outlineConnect=0;portConstraint=eastwest;newEdgeStyle={&quot;edgeStyle&quot;:&quot;elbowEdgeStyle&quot;,&quot;elbow&quot;:&quot;vertical&quot;,&quot;curved&quot;:0,&quot;rounded&quot;:0};" vertex="1" parent="1">
          <mxGeometry x="425" y="40" width="100" height="1180" as="geometry" />
        </mxCell>
        <mxCell id="B-dKM5KLC_w13ERNdBNS-15" value=":Database" style="shape=umlLifeline;perimeter=lifelinePerimeter;whiteSpace=wrap;html=1;container=0;dropTarget=0;collapsible=0;recursiveResize=0;outlineConnect=0;portConstraint=eastwest;newEdgeStyle={&quot;edgeStyle&quot;:&quot;elbowEdgeStyle&quot;,&quot;elbow&quot;:&quot;vertical&quot;,&quot;curved&quot;:0,&quot;rounded&quot;:0};" vertex="1" parent="1">
          <mxGeometry x="605" y="40" width="100" height="1180" as="geometry" />
        </mxCell>
        <mxCell id="B-dKM5KLC_w13ERNdBNS-23" value="" style="group" connectable="0" vertex="1" parent="1">
          <mxGeometry x="70" y="40" width="90" height="1180" as="geometry" />
        </mxCell>
        <mxCell id="B-dKM5KLC_w13ERNdBNS-24" value="" style="shape=umlLifeline;perimeter=lifelinePerimeter;whiteSpace=wrap;html=1;container=1;dropTarget=0;collapsible=0;recursiveResize=0;outlineConnect=0;portConstraint=eastwest;newEdgeStyle={&quot;curved&quot;:0,&quot;rounded&quot;:0};participant=umlActor;" vertex="1" parent="B-dKM5KLC_w13ERNdBNS-23">
          <mxGeometry x="35" width="20" height="1180" as="geometry" />
        </mxCell>
        <mxCell id="B-dKM5KLC_w13ERNdBNS-29" value="&lt;font size=&quot;1&quot;&gt;пользователь&lt;/font&gt;" style="text;html=1;align=center;verticalAlign=middle;resizable=0;points=[];autosize=1;strokeColor=none;fillColor=none;labelBackgroundColor=default;" vertex="1" parent="B-dKM5KLC_w13ERNdBNS-23">
          <mxGeometry y="30.00123167155425" width="90" height="30" as="geometry" />
        </mxCell>
        <mxCell id="B-dKM5KLC_w13ERNdBNS-30" value="" style="html=1;points=[];perimeter=orthogonalPerimeter;outlineConnect=0;targetShapes=umlLifeline;portConstraint=eastwest;newEdgeStyle={&quot;edgeStyle&quot;:&quot;elbowEdgeStyle&quot;,&quot;elbow&quot;:&quot;vertical&quot;,&quot;curved&quot;:0,&quot;rounded&quot;:0};" vertex="1" parent="1">
          <mxGeometry x="290" y="110" width="10" height="1080" as="geometry" />
        </mxCell>
        <mxCell id="B-dKM5KLC_w13ERNdBNS-31" value="" style="html=1;points=[];perimeter=orthogonalPerimeter;outlineConnect=0;targetShapes=umlLifeline;portConstraint=eastwest;newEdgeStyle={&quot;edgeStyle&quot;:&quot;elbowEdgeStyle&quot;,&quot;elbow&quot;:&quot;vertical&quot;,&quot;curved&quot;:0,&quot;rounded&quot;:0};" vertex="1" parent="1">
          <mxGeometry x="470" y="150" width="10" height="80" as="geometry" />
        </mxCell>
        <mxCell id="B-dKM5KLC_w13ERNdBNS-32" value="" style="html=1;points=[];perimeter=orthogonalPerimeter;outlineConnect=0;targetShapes=umlLifeline;portConstraint=eastwest;newEdgeStyle={&quot;edgeStyle&quot;:&quot;elbowEdgeStyle&quot;,&quot;elbow&quot;:&quot;vertical&quot;,&quot;curved&quot;:0,&quot;rounded&quot;:0};" vertex="1" parent="1">
          <mxGeometry x="470" y="660" width="10" height="130" as="geometry" />
        </mxCell>
        <mxCell id="B-dKM5KLC_w13ERNdBNS-33" value="" style="html=1;points=[];perimeter=orthogonalPerimeter;outlineConnect=0;targetShapes=umlLifeline;portConstraint=eastwest;newEdgeStyle={&quot;edgeStyle&quot;:&quot;elbowEdgeStyle&quot;,&quot;elbow&quot;:&quot;vertical&quot;,&quot;curved&quot;:0,&quot;rounded&quot;:0};" vertex="1" parent="1">
          <mxGeometry x="470" y="880" width="10" height="170" as="geometry" />
        </mxCell>
        <mxCell id="B-dKM5KLC_w13ERNdBNS-34" value="" style="html=1;points=[];perimeter=orthogonalPerimeter;outlineConnect=0;targetShapes=umlLifeline;portConstraint=eastwest;newEdgeStyle={&quot;edgeStyle&quot;:&quot;elbowEdgeStyle&quot;,&quot;elbow&quot;:&quot;vertical&quot;,&quot;curved&quot;:0,&quot;rounded&quot;:0};" vertex="1" parent="1">
          <mxGeometry x="650" y="170" width="10" height="40" as="geometry" />
        </mxCell>
        <mxCell id="B-dKM5KLC_w13ERNdBNS-35" value="" style="html=1;points=[];perimeter=orthogonalPerimeter;outlineConnect=0;targetShapes=umlLifeline;portConstraint=eastwest;newEdgeStyle={&quot;edgeStyle&quot;:&quot;elbowEdgeStyle&quot;,&quot;elbow&quot;:&quot;vertical&quot;,&quot;curved&quot;:0,&quot;rounded&quot;:0};" vertex="1" parent="1">
          <mxGeometry x="650" y="380" width="10" height="40" as="geometry" />
        </mxCell>
        <mxCell id="B-dKM5KLC_w13ERNdBNS-36" value="" style="html=1;points=[];perimeter=orthogonalPerimeter;outlineConnect=0;targetShapes=umlLifeline;portConstraint=eastwest;newEdgeStyle={&quot;edgeStyle&quot;:&quot;elbowEdgeStyle&quot;,&quot;elbow&quot;:&quot;vertical&quot;,&quot;curved&quot;:0,&quot;rounded&quot;:0};" vertex="1" parent="1">
          <mxGeometry x="650" y="730" width="10" height="40" as="geometry" />
        </mxCell>
        <mxCell id="B-dKM5KLC_w13ERNdBNS-37" value="Запрос на создание бронирования" style="html=1;verticalAlign=bottom;endArrow=block;edgeStyle=elbowEdgeStyle;elbow=vertical;curved=0;rounded=0;fontSize=9;" edge="1" parent="1">
          <mxGeometry relative="1" as="geometry">
            <mxPoint x="480" y="740" as="sourcePoint" />
            <Array as="points">
              <mxPoint x="565" y="740" />
            </Array>
            <mxPoint x="650" y="740" as="targetPoint" />
          </mxGeometry>
        </mxCell>
        <mxCell id="B-dKM5KLC_w13ERNdBNS-38" value="Ответ на запрос" style="html=1;verticalAlign=bottom;endArrow=open;dashed=1;endSize=8;edgeStyle=elbowEdgeStyle;elbow=vertical;curved=0;rounded=0;fontSize=9;" edge="1" parent="1">
          <mxGeometry relative="1" as="geometry">
            <mxPoint x="480" y="760" as="targetPoint" />
            <Array as="points">
              <mxPoint x="570" y="760" />
            </Array>
            <mxPoint x="650" y="760" as="sourcePoint" />
          </mxGeometry>
        </mxCell>
        <mxCell id="B-dKM5KLC_w13ERNdBNS-39" value="Бронирование объявления" style="ellipse;whiteSpace=wrap;html=1;fontSize=9;" vertex="1" parent="1">
          <mxGeometry x="-80" y="120" width="120" height="60" as="geometry" />
        </mxCell>
        <mxCell id="B-dKM5KLC_w13ERNdBNS-40" value="Переход на главную страницу" style="html=1;verticalAlign=bottom;endArrow=block;edgeStyle=elbowEdgeStyle;elbow=vertical;curved=0;rounded=0;fontSize=9;" edge="1" parent="1">
          <mxGeometry relative="1" as="geometry">
            <mxPoint x="120" y="140" as="sourcePoint" />
            <Array as="points">
              <mxPoint x="205" y="140" />
            </Array>
            <mxPoint x="290" y="140" as="targetPoint" />
          </mxGeometry>
        </mxCell>
        <mxCell id="B-dKM5KLC_w13ERNdBNS-41" value="Отобразить главную страницу" style="html=1;verticalAlign=bottom;endArrow=open;dashed=1;endSize=8;edgeStyle=elbowEdgeStyle;elbow=vertical;curved=0;rounded=0;fontSize=9;" edge="1" parent="1">
          <mxGeometry relative="1" as="geometry">
            <mxPoint x="120" y="250" as="targetPoint" />
            <Array as="points">
              <mxPoint x="210" y="250" />
            </Array>
            <mxPoint x="290" y="250" as="sourcePoint" />
          </mxGeometry>
        </mxCell>
        <mxCell id="B-dKM5KLC_w13ERNdBNS-42" value="Перейти в фильтры" style="html=1;verticalAlign=bottom;endArrow=block;edgeStyle=elbowEdgeStyle;elbow=vertical;curved=0;rounded=0;fontSize=9;" edge="1" parent="1">
          <mxGeometry relative="1" as="geometry">
            <mxPoint x="120" y="310" as="sourcePoint" />
            <Array as="points">
              <mxPoint x="205" y="310" />
            </Array>
            <mxPoint x="290" y="310" as="targetPoint" />
          </mxGeometry>
        </mxCell>
        <mxCell id="B-dKM5KLC_w13ERNdBNS-43" value="Отобразить страницу с фильтрами" style="html=1;verticalAlign=bottom;endArrow=open;dashed=1;endSize=8;edgeStyle=elbowEdgeStyle;elbow=vertical;curved=0;rounded=0;fontSize=9;" edge="1" parent="1">
          <mxGeometry relative="1" as="geometry">
            <mxPoint x="120" y="330" as="targetPoint" />
            <Array as="points">
              <mxPoint x="210" y="330" />
            </Array>
            <mxPoint x="290" y="330" as="sourcePoint" />
          </mxGeometry>
        </mxCell>
        <mxCell id="B-dKM5KLC_w13ERNdBNS-44" value="opt" style="shape=umlFrame;whiteSpace=wrap;html=1;pointerEvents=0;fontSize=9;width=30;height=15;" vertex="1" parent="1">
          <mxGeometry x="80" y="270" width="650" height="180" as="geometry" />
        </mxCell>
        <mxCell id="B-dKM5KLC_w13ERNdBNS-45" value="GET /properties/" style="html=1;verticalAlign=bottom;endArrow=block;edgeStyle=elbowEdgeStyle;elbow=vertical;curved=0;rounded=0;fontSize=9;" edge="1" parent="1">
          <mxGeometry relative="1" as="geometry">
            <mxPoint x="300" y="159.65999999999985" as="sourcePoint" />
            <Array as="points">
              <mxPoint x="385" y="159.65999999999985" />
            </Array>
            <mxPoint x="470" y="159.65999999999985" as="targetPoint" />
          </mxGeometry>
        </mxCell>
        <mxCell id="B-dKM5KLC_w13ERNdBNS-46" value="Запрос на получение объявлений" style="html=1;verticalAlign=bottom;endArrow=block;edgeStyle=elbowEdgeStyle;elbow=vertical;curved=0;rounded=0;fontSize=9;" edge="1" parent="1">
          <mxGeometry relative="1" as="geometry">
            <mxPoint x="480" y="180" as="sourcePoint" />
            <Array as="points">
              <mxPoint x="565" y="180" />
            </Array>
            <mxPoint x="650" y="180" as="targetPoint" />
          </mxGeometry>
        </mxCell>
        <mxCell id="B-dKM5KLC_w13ERNdBNS-47" value="Ответ на запрос" style="html=1;verticalAlign=bottom;endArrow=open;dashed=1;endSize=8;edgeStyle=elbowEdgeStyle;elbow=vertical;curved=0;rounded=0;fontSize=9;" edge="1" parent="1">
          <mxGeometry relative="1" as="geometry">
            <mxPoint x="480" y="200" as="targetPoint" />
            <Array as="points">
              <mxPoint x="570" y="200" />
            </Array>
            <mxPoint x="650" y="200" as="sourcePoint" />
          </mxGeometry>
        </mxCell>
        <mxCell id="B-dKM5KLC_w13ERNdBNS-48" value="" style="group" connectable="0" vertex="1" parent="1">
          <mxGeometry x="300" y="220" width="170" height="20" as="geometry" />
        </mxCell>
        <mxCell id="B-dKM5KLC_w13ERNdBNS-49" value="200 OK" style="html=1;verticalAlign=bottom;endArrow=open;dashed=1;endSize=8;edgeStyle=elbowEdgeStyle;elbow=vertical;curved=0;rounded=0;fontSize=9;" edge="1" parent="B-dKM5KLC_w13ERNdBNS-48">
          <mxGeometry relative="1" as="geometry">
            <mxPoint as="targetPoint" />
            <Array as="points">
              <mxPoint x="90" />
            </Array>
            <mxPoint x="170" as="sourcePoint" />
          </mxGeometry>
        </mxCell>
        <mxCell id="B-dKM5KLC_w13ERNdBNS-50" value="&lt;font&gt;- List&amp;lt;Property&amp;gt;&lt;/font&gt;" style="text;html=1;align=center;verticalAlign=middle;resizable=0;points=[];autosize=1;strokeColor=none;fillColor=none;fontSize=9;" vertex="1" parent="B-dKM5KLC_w13ERNdBNS-48">
          <mxGeometry x="40" width="90" height="20" as="geometry" />
        </mxCell>
        <mxCell id="B-dKM5KLC_w13ERNdBNS-51" value="&lt;font size=&quot;1&quot;&gt;[фильтрация объявлений]&lt;/font&gt;" style="text;html=1;align=center;verticalAlign=middle;resizable=0;points=[];autosize=1;strokeColor=none;fillColor=none;" vertex="1" parent="1">
          <mxGeometry x="130" y="260" width="140" height="30" as="geometry" />
        </mxCell>
        <mxCell id="B-dKM5KLC_w13ERNdBNS-52" value="Выбрать необходимые фильтры" style="html=1;verticalAlign=bottom;endArrow=block;edgeStyle=elbowEdgeStyle;elbow=vertical;curved=0;rounded=0;fontSize=9;" edge="1" parent="1">
          <mxGeometry relative="1" as="geometry">
            <mxPoint x="120" y="349.65999999999985" as="sourcePoint" />
            <Array as="points">
              <mxPoint x="205" y="349.65999999999985" />
            </Array>
            <mxPoint x="290" y="349.65999999999985" as="targetPoint" />
          </mxGeometry>
        </mxCell>
        <mxCell id="B-dKM5KLC_w13ERNdBNS-53" value="" style="group" connectable="0" vertex="1" parent="1">
          <mxGeometry x="300" y="365" width="170" height="30" as="geometry" />
        </mxCell>
        <mxCell id="B-dKM5KLC_w13ERNdBNS-54" value="GET /properties/" style="html=1;verticalAlign=bottom;endArrow=block;edgeStyle=elbowEdgeStyle;elbow=vertical;curved=0;rounded=0;fontSize=9;" edge="1" parent="B-dKM5KLC_w13ERNdBNS-53">
          <mxGeometry relative="1" as="geometry">
            <mxPoint y="5" as="sourcePoint" />
            <Array as="points">
              <mxPoint x="85" y="5" />
            </Array>
            <mxPoint x="170" y="5" as="targetPoint" />
          </mxGeometry>
        </mxCell>
        <mxCell id="B-dKM5KLC_w13ERNdBNS-55" value="&lt;font size=&quot;1&quot;&gt;- propertyFilter&lt;/font&gt;" style="text;html=1;align=center;verticalAlign=middle;resizable=0;points=[];autosize=1;strokeColor=none;fillColor=none;" vertex="1" parent="B-dKM5KLC_w13ERNdBNS-53">
          <mxGeometry x="40" width="90" height="30" as="geometry" />
        </mxCell>
        <mxCell id="B-dKM5KLC_w13ERNdBNS-56" value="" style="html=1;points=[];perimeter=orthogonalPerimeter;outlineConnect=0;targetShapes=umlLifeline;portConstraint=eastwest;newEdgeStyle={&quot;edgeStyle&quot;:&quot;elbowEdgeStyle&quot;,&quot;elbow&quot;:&quot;vertical&quot;,&quot;curved&quot;:0,&quot;rounded&quot;:0};" vertex="1" parent="1">
          <mxGeometry x="470" y="360" width="10" height="80" as="geometry" />
        </mxCell>
        <mxCell id="B-dKM5KLC_w13ERNdBNS-57" value="Запрос на получение объявлений&lt;div&gt;с выбранными фильтрами&lt;/div&gt;" style="html=1;verticalAlign=bottom;endArrow=block;edgeStyle=elbowEdgeStyle;elbow=vertical;curved=0;rounded=0;fontSize=9;" edge="1" parent="1">
          <mxGeometry relative="1" as="geometry">
            <mxPoint x="480" y="390" as="sourcePoint" />
            <Array as="points">
              <mxPoint x="565" y="390" />
            </Array>
            <mxPoint x="650" y="390" as="targetPoint" />
          </mxGeometry>
        </mxCell>
        <mxCell id="B-dKM5KLC_w13ERNdBNS-58" value="Ответ на запрос" style="html=1;verticalAlign=bottom;endArrow=open;dashed=1;endSize=8;edgeStyle=elbowEdgeStyle;elbow=vertical;curved=0;rounded=0;fontSize=9;" edge="1" parent="1">
          <mxGeometry relative="1" as="geometry">
            <mxPoint x="480" y="410" as="targetPoint" />
            <Array as="points">
              <mxPoint x="570" y="410" />
            </Array>
            <mxPoint x="650" y="410" as="sourcePoint" />
          </mxGeometry>
        </mxCell>
        <mxCell id="B-dKM5KLC_w13ERNdBNS-59" value="" style="group" connectable="0" vertex="1" parent="1">
          <mxGeometry x="300" y="430" width="170" height="20" as="geometry" />
        </mxCell>
        <mxCell id="B-dKM5KLC_w13ERNdBNS-60" value="200 OK" style="html=1;verticalAlign=bottom;endArrow=open;dashed=1;endSize=8;edgeStyle=elbowEdgeStyle;elbow=vertical;curved=0;rounded=0;fontSize=9;" edge="1" parent="B-dKM5KLC_w13ERNdBNS-59">
          <mxGeometry relative="1" as="geometry">
            <mxPoint as="targetPoint" />
            <Array as="points">
              <mxPoint x="90" />
            </Array>
            <mxPoint x="170" as="sourcePoint" />
          </mxGeometry>
        </mxCell>
        <mxCell id="B-dKM5KLC_w13ERNdBNS-61" value="&lt;font&gt;- List&amp;lt;Property&amp;gt;&lt;/font&gt;" style="text;html=1;align=center;verticalAlign=middle;resizable=0;points=[];autosize=1;strokeColor=none;fillColor=none;fontSize=9;" vertex="1" parent="B-dKM5KLC_w13ERNdBNS-59">
          <mxGeometry x="40" width="90" height="20" as="geometry" />
        </mxCell>
        <mxCell id="B-dKM5KLC_w13ERNdBNS-62" value="Переход по понравившемуся&lt;div&gt;объявлению&lt;/div&gt;" style="html=1;verticalAlign=bottom;endArrow=block;edgeStyle=elbowEdgeStyle;elbow=vertical;curved=0;rounded=0;fontSize=9;" edge="1" parent="1">
          <mxGeometry relative="1" as="geometry">
            <mxPoint x="120" y="490" as="sourcePoint" />
            <Array as="points">
              <mxPoint x="205" y="490" />
            </Array>
            <mxPoint x="290" y="490" as="targetPoint" />
          </mxGeometry>
        </mxCell>
        <mxCell id="B-dKM5KLC_w13ERNdBNS-63" value="Отобразить страницу объявления" style="html=1;verticalAlign=bottom;endArrow=open;dashed=1;endSize=8;edgeStyle=elbowEdgeStyle;elbow=vertical;curved=0;rounded=0;fontSize=9;" edge="1" parent="1">
          <mxGeometry relative="1" as="geometry">
            <mxPoint x="120" y="520" as="targetPoint" />
            <Array as="points">
              <mxPoint x="210" y="520" />
            </Array>
            <mxPoint x="290" y="520" as="sourcePoint" />
          </mxGeometry>
        </mxCell>
        <mxCell id="B-dKM5KLC_w13ERNdBNS-64" value="Нажатие на &quot;Выбрать даты&quot;" style="html=1;verticalAlign=bottom;endArrow=block;edgeStyle=elbowEdgeStyle;elbow=vertical;curved=0;rounded=0;fontSize=9;" edge="1" parent="1">
          <mxGeometry relative="1" as="geometry">
            <mxPoint x="120" y="550" as="sourcePoint" />
            <Array as="points">
              <mxPoint x="205" y="550" />
            </Array>
            <mxPoint x="290" y="550" as="targetPoint" />
          </mxGeometry>
        </mxCell>
        <mxCell id="B-dKM5KLC_w13ERNdBNS-65" value="Отобразить страницу календаря&lt;div&gt;со свободными и занятыми датами&lt;/div&gt;" style="html=1;verticalAlign=bottom;endArrow=open;dashed=1;endSize=8;edgeStyle=elbowEdgeStyle;elbow=vertical;curved=0;rounded=0;fontSize=9;" edge="1" parent="1">
          <mxGeometry x="-0.002" relative="1" as="geometry">
            <mxPoint x="120" y="590" as="targetPoint" />
            <Array as="points">
              <mxPoint x="210" y="590" />
            </Array>
            <mxPoint x="290" y="590" as="sourcePoint" />
            <mxPoint as="offset" />
          </mxGeometry>
        </mxCell>
        <mxCell id="B-dKM5KLC_w13ERNdBNS-66" value="Выбрать свободные даты" style="html=1;verticalAlign=bottom;endArrow=block;edgeStyle=elbowEdgeStyle;elbow=vertical;curved=0;rounded=0;fontSize=9;" edge="1" parent="1">
          <mxGeometry relative="1" as="geometry">
            <mxPoint x="120" y="620" as="sourcePoint" />
            <Array as="points">
              <mxPoint x="205" y="620" />
            </Array>
            <mxPoint x="290" y="620" as="targetPoint" />
          </mxGeometry>
        </mxCell>
        <mxCell id="B-dKM5KLC_w13ERNdBNS-67" value="alt" style="shape=umlFrame;whiteSpace=wrap;html=1;pointerEvents=0;fontSize=9;width=30;height=15;" vertex="1" parent="1">
          <mxGeometry x="70" y="630" width="620" height="530" as="geometry" />
        </mxCell>
        <mxCell id="B-dKM5KLC_w13ERNdBNS-68" value="ref" style="shape=umlFrame;whiteSpace=wrap;html=1;pointerEvents=0;fontSize=9;width=30;height=15;" vertex="1" parent="1">
          <mxGeometry x="80" y="1120" width="240" height="30" as="geometry" />
        </mxCell>
        <mxCell id="B-dKM5KLC_w13ERNdBNS-69" value="&lt;font size=&quot;1&quot;&gt;[пользователь авторизован]&lt;/font&gt;" style="text;html=1;align=center;verticalAlign=middle;resizable=0;points=[];autosize=1;strokeColor=none;fillColor=none;" vertex="1" parent="1">
          <mxGeometry x="130" y="620" width="150" height="30" as="geometry" />
        </mxCell>
        <mxCell id="B-dKM5KLC_w13ERNdBNS-70" value="Нажатие на &quot;Забронировать&quot;" style="html=1;verticalAlign=bottom;endArrow=block;edgeStyle=elbowEdgeStyle;elbow=vertical;curved=0;rounded=0;fontSize=9;" edge="1" parent="1">
          <mxGeometry relative="1" as="geometry">
            <mxPoint x="120" y="660" as="sourcePoint" />
            <Array as="points">
              <mxPoint x="205" y="660" />
            </Array>
            <mxPoint x="290" y="660" as="targetPoint" />
          </mxGeometry>
        </mxCell>
        <mxCell id="B-dKM5KLC_w13ERNdBNS-71" value="POST /reservation/" style="html=1;verticalAlign=bottom;endArrow=block;edgeStyle=elbowEdgeStyle;elbow=vertical;curved=0;rounded=0;fontSize=9;" edge="1" parent="1">
          <mxGeometry relative="1" as="geometry">
            <mxPoint x="300" y="680" as="sourcePoint" />
            <Array as="points">
              <mxPoint x="385" y="680" />
            </Array>
            <mxPoint x="470" y="680" as="targetPoint" />
          </mxGeometry>
        </mxCell>
        <mxCell id="B-dKM5KLC_w13ERNdBNS-72" value="&lt;div&gt;&lt;font&gt;- propertyId&lt;/font&gt;&lt;/div&gt;&lt;div&gt;&lt;font&gt;- reservatorId&lt;/font&gt;&lt;/div&gt;&lt;font&gt;- startDate&lt;/font&gt;&lt;div&gt;&lt;font&gt;- endDate&lt;/font&gt;&lt;/div&gt;" style="text;html=1;align=left;verticalAlign=middle;resizable=0;points=[];autosize=1;strokeColor=none;fillColor=none;fontSize=9;" vertex="1" parent="1">
          <mxGeometry x="356.3" y="673" width="80" height="60" as="geometry" />
        </mxCell>
        <mxCell id="B-dKM5KLC_w13ERNdBNS-73" value="" style="group" connectable="0" vertex="1" parent="1">
          <mxGeometry x="300" y="780" width="170" height="20" as="geometry" />
        </mxCell>
        <mxCell id="B-dKM5KLC_w13ERNdBNS-74" value="201 CREATED" style="html=1;verticalAlign=bottom;endArrow=open;dashed=1;endSize=8;edgeStyle=elbowEdgeStyle;elbow=vertical;curved=0;rounded=0;fontSize=9;" edge="1" parent="B-dKM5KLC_w13ERNdBNS-73">
          <mxGeometry relative="1" as="geometry">
            <mxPoint as="targetPoint" />
            <Array as="points">
              <mxPoint x="90" />
            </Array>
            <mxPoint x="170" as="sourcePoint" />
          </mxGeometry>
        </mxCell>
        <mxCell id="B-dKM5KLC_w13ERNdBNS-75" value="&lt;font&gt;- reservation&lt;/font&gt;" style="text;html=1;align=center;verticalAlign=middle;resizable=0;points=[];autosize=1;strokeColor=none;fillColor=none;fontSize=9;" vertex="1" parent="B-dKM5KLC_w13ERNdBNS-73">
          <mxGeometry x="50" width="70" height="20" as="geometry" />
        </mxCell>
        <mxCell id="B-dKM5KLC_w13ERNdBNS-76" value="Отобразить экран с подтверждением&lt;div&gt;бронирования&lt;/div&gt;" style="html=1;verticalAlign=bottom;endArrow=open;dashed=1;endSize=8;edgeStyle=elbowEdgeStyle;elbow=vertical;curved=0;rounded=0;fontSize=9;" edge="1" parent="1">
          <mxGeometry x="-0.002" relative="1" as="geometry">
            <mxPoint x="120" y="800" as="targetPoint" />
            <Array as="points">
              <mxPoint x="210" y="800" />
            </Array>
            <mxPoint x="290" y="800" as="sourcePoint" />
            <mxPoint as="offset" />
          </mxGeometry>
        </mxCell>
        <mxCell id="B-dKM5KLC_w13ERNdBNS-77" value="Рассчитать стоимость аренды&lt;div&gt;и комиссии&lt;/div&gt;" style="html=1;align=left;spacingLeft=2;endArrow=block;rounded=0;edgeStyle=orthogonalEdgeStyle;curved=0;rounded=0;fontSize=9;" edge="1" parent="1">
          <mxGeometry relative="1" as="geometry">
            <mxPoint x="480" y="692.998" as="sourcePoint" />
            <Array as="points">
              <mxPoint x="495" y="693" />
              <mxPoint x="495" y="713" />
            </Array>
            <mxPoint x="480" y="713" as="targetPoint" />
          </mxGeometry>
        </mxCell>
        <mxCell id="B-dKM5KLC_w13ERNdBNS-78" value="Нажатие на &quot;Подтвердить бронирование&quot;" style="html=1;verticalAlign=bottom;endArrow=block;edgeStyle=elbowEdgeStyle;elbow=vertical;curved=0;rounded=0;fontSize=8;" edge="1" parent="1">
          <mxGeometry relative="1" as="geometry">
            <mxPoint x="120" y="830" as="sourcePoint" />
            <Array as="points">
              <mxPoint x="205" y="830" />
            </Array>
            <mxPoint x="290" y="830" as="targetPoint" />
          </mxGeometry>
        </mxCell>
        <mxCell id="B-dKM5KLC_w13ERNdBNS-79" value="Отобразить экран оплаты" style="html=1;verticalAlign=bottom;endArrow=open;dashed=1;endSize=8;edgeStyle=elbowEdgeStyle;elbow=vertical;curved=0;rounded=0;fontSize=9;" edge="1" parent="1">
          <mxGeometry x="-0.002" relative="1" as="geometry">
            <mxPoint x="120" y="850" as="targetPoint" />
            <Array as="points">
              <mxPoint x="210" y="850" />
            </Array>
            <mxPoint x="290" y="850" as="sourcePoint" />
            <mxPoint as="offset" />
          </mxGeometry>
        </mxCell>
        <mxCell id="B-dKM5KLC_w13ERNdBNS-80" value="Произвести оплату" style="html=1;verticalAlign=bottom;endArrow=block;edgeStyle=elbowEdgeStyle;elbow=vertical;curved=0;rounded=0;fontSize=9;" edge="1" parent="1">
          <mxGeometry relative="1" as="geometry">
            <mxPoint x="120" y="880" as="sourcePoint" />
            <Array as="points">
              <mxPoint x="205" y="880" />
            </Array>
            <mxPoint x="290" y="880" as="targetPoint" />
          </mxGeometry>
        </mxCell>
        <mxCell id="B-dKM5KLC_w13ERNdBNS-81" value="GET /payment/check-payment-status" style="html=1;verticalAlign=bottom;endArrow=block;edgeStyle=elbowEdgeStyle;elbow=vertical;curved=0;rounded=0;fontSize=9;" edge="1" parent="1">
          <mxGeometry relative="1" as="geometry">
            <mxPoint x="300" y="900" as="sourcePoint" />
            <Array as="points">
              <mxPoint x="385" y="900" />
            </Array>
            <mxPoint x="470" y="900" as="targetPoint" />
          </mxGeometry>
        </mxCell>
        <mxCell id="B-dKM5KLC_w13ERNdBNS-82" value="Проверить статус оплаты" style="html=1;align=left;spacingLeft=2;endArrow=block;rounded=0;edgeStyle=orthogonalEdgeStyle;curved=0;rounded=0;fontSize=9;" edge="1" parent="1">
          <mxGeometry relative="1" as="geometry">
            <mxPoint x="480" y="909.998" as="sourcePoint" />
            <Array as="points">
              <mxPoint x="495" y="910" />
              <mxPoint x="495" y="930" />
            </Array>
            <mxPoint x="480" y="930" as="targetPoint" />
          </mxGeometry>
        </mxCell>
        <mxCell id="B-dKM5KLC_w13ERNdBNS-83" value="Запрос на обновление&lt;div&gt;статуса бронирования&lt;/div&gt;" style="html=1;verticalAlign=bottom;endArrow=block;edgeStyle=elbowEdgeStyle;elbow=vertical;curved=0;rounded=0;fontSize=9;" edge="1" parent="1">
          <mxGeometry relative="1" as="geometry">
            <mxPoint x="480" y="960" as="sourcePoint" />
            <Array as="points">
              <mxPoint x="565" y="960" />
            </Array>
            <mxPoint x="650" y="960" as="targetPoint" />
          </mxGeometry>
        </mxCell>
        <mxCell id="B-dKM5KLC_w13ERNdBNS-84" value="" style="html=1;points=[];perimeter=orthogonalPerimeter;outlineConnect=0;targetShapes=umlLifeline;portConstraint=eastwest;newEdgeStyle={&quot;edgeStyle&quot;:&quot;elbowEdgeStyle&quot;,&quot;elbow&quot;:&quot;vertical&quot;,&quot;curved&quot;:0,&quot;rounded&quot;:0};" vertex="1" parent="1">
          <mxGeometry x="650" y="950" width="10" height="40" as="geometry" />
        </mxCell>
        <mxCell id="B-dKM5KLC_w13ERNdBNS-85" value="Ответ на запрос" style="html=1;verticalAlign=bottom;endArrow=open;dashed=1;endSize=8;edgeStyle=elbowEdgeStyle;elbow=vertical;curved=0;rounded=0;fontSize=9;" edge="1" parent="1">
          <mxGeometry relative="1" as="geometry">
            <mxPoint x="480" y="980" as="targetPoint" />
            <Array as="points">
              <mxPoint x="570" y="980" />
            </Array>
            <mxPoint x="650" y="980" as="sourcePoint" />
          </mxGeometry>
        </mxCell>
        <mxCell id="B-dKM5KLC_w13ERNdBNS-86" value="Уведомить арендодателя&lt;div&gt;о бронировании&lt;/div&gt;" style="html=1;align=left;spacingLeft=2;endArrow=block;rounded=0;edgeStyle=orthogonalEdgeStyle;curved=0;rounded=0;fontSize=9;" edge="1" parent="1">
          <mxGeometry relative="1" as="geometry">
            <mxPoint x="480" y="999.998" as="sourcePoint" />
            <Array as="points">
              <mxPoint x="495" y="1000" />
              <mxPoint x="495" y="1020" />
            </Array>
            <mxPoint x="480" y="1020" as="targetPoint" />
          </mxGeometry>
        </mxCell>
        <mxCell id="B-dKM5KLC_w13ERNdBNS-87" value="200 OK" style="html=1;verticalAlign=bottom;endArrow=open;dashed=1;endSize=8;edgeStyle=elbowEdgeStyle;elbow=vertical;curved=0;rounded=0;fontSize=9;" edge="1" parent="1">
          <mxGeometry relative="1" as="geometry">
            <mxPoint x="300" y="1040" as="targetPoint" />
            <Array as="points">
              <mxPoint x="390" y="1040" />
            </Array>
            <mxPoint x="470" y="1040" as="sourcePoint" />
          </mxGeometry>
        </mxCell>
        <mxCell id="B-dKM5KLC_w13ERNdBNS-88" value="Отобразить экран&lt;div&gt;успешного бронирования&lt;/div&gt;" style="html=1;verticalAlign=bottom;endArrow=open;dashed=1;endSize=8;edgeStyle=elbowEdgeStyle;elbow=vertical;curved=0;rounded=0;fontSize=9;" edge="1" parent="1">
          <mxGeometry x="-0.002" relative="1" as="geometry">
            <mxPoint x="120" y="1060" as="targetPoint" />
            <Array as="points">
              <mxPoint x="210" y="1060" />
            </Array>
            <mxPoint x="290" y="1060" as="sourcePoint" />
            <mxPoint as="offset" />
          </mxGeometry>
        </mxCell>
        <mxCell id="B-dKM5KLC_w13ERNdBNS-89" value="" style="endArrow=none;dashed=1;html=1;rounded=0;exitX=0.004;exitY=0.739;exitDx=0;exitDy=0;exitPerimeter=0;entryX=0.999;entryY=0.736;entryDx=0;entryDy=0;entryPerimeter=0;" edge="1" parent="1">
          <mxGeometry width="50" height="50" relative="1" as="geometry">
            <mxPoint x="73.10000000000001" y="1071.5900000000001" as="sourcePoint" />
            <mxPoint x="690.0000000000001" y="1070" as="targetPoint" />
          </mxGeometry>
        </mxCell>
        <mxCell id="B-dKM5KLC_w13ERNdBNS-90" value="&lt;font size=&quot;1&quot;&gt;[пользователь не авторизован]&lt;/font&gt;" style="text;html=1;align=center;verticalAlign=middle;resizable=0;points=[];autosize=1;strokeColor=none;fillColor=none;" vertex="1" parent="1">
          <mxGeometry x="120" y="1070" width="170" height="30" as="geometry" />
        </mxCell>
        <mxCell id="B-dKM5KLC_w13ERNdBNS-91" value="Нажатие на &quot;Вход/Регистрация&quot;" style="html=1;verticalAlign=bottom;endArrow=block;edgeStyle=elbowEdgeStyle;elbow=vertical;curved=0;rounded=0;fontSize=9;" edge="1" parent="1">
          <mxGeometry relative="1" as="geometry">
            <mxPoint x="120" y="1110" as="sourcePoint" />
            <Array as="points">
              <mxPoint x="205" y="1110" />
            </Array>
            <mxPoint x="290" y="1110" as="targetPoint" />
          </mxGeometry>
        </mxCell>
        <mxCell id="B-dKM5KLC_w13ERNdBNS-92" value="Авторизация" style="text;html=1;align=center;verticalAlign=middle;resizable=0;points=[];autosize=1;strokeColor=none;fillColor=none;" vertex="1" parent="1">
          <mxGeometry x="150" y="1118" width="100" height="30" as="geometry" />
        </mxCell>
        <mxCell id="B-dKM5KLC_w13ERNdBNS-93" value="" style="html=1;points=[];perimeter=orthogonalPerimeter;outlineConnect=0;targetShapes=umlLifeline;portConstraint=eastwest;newEdgeStyle={&quot;edgeStyle&quot;:&quot;elbowEdgeStyle&quot;,&quot;elbow&quot;:&quot;vertical&quot;,&quot;curved&quot;:0,&quot;rounded&quot;:0};" vertex="1" parent="1">
          <mxGeometry x="110" y="110" width="10" height="1080" as="geometry" />
        </mxCell>
      </root>
    </mxGraphModel>
  </diagram>
</mxfile>
